<svg xmlns="http://www.w3.org/2000/svg" xmlns:xlink="http://www.w3.org/1999/xlink" width="294" zoomAndPan="magnify" viewBox="0 0 220.5 68.999997" height="92" preserveAspectRatio="xMidYMid meet" version="1.0"><defs><g/><clipPath id="521d1121c4"><path d="M 33.609375 18 L 160.824219 18 L 160.824219 43 L 33.609375 43 Z M 33.609375 18 " clip-rule="nonzero"/></clipPath></defs><g fill="#ffffff" fill-opacity="1"><g transform="translate(106.24402, 63.836822)"><g><path d="M 5.765625 -1.671875 L 2.03125 -1.671875 L 1.3125 0 L 0.015625 0 L 3.28125 -7.421875 L 4.578125 -7.421875 L 7.8125 0 L 6.484375 0 Z M 5.296875 -2.796875 L 3.890625 -6.09375 L 2.5 -2.796875 Z M 5.296875 -2.796875 "/></g></g></g><path fill="#1e90ff" d="M 39.820312 41.734375 C 55.425781 35.820312 72.457031 38.128906 90.898438 48.648438 C 72.9375 41.789062 55.886719 39.371094 39.820312 41.734375 " fill-opacity="1" fill-rule="evenodd"/><path fill="#1e90ff" d="M 39.550781 38.941406 C 48.96875 34.105469 64.863281 35.691406 84.699219 41.179688 C 99.628906 45.3125 112.742188 49.953125 128.480469 49.769531 C 141.242188 49.617188 154.386719 45.980469 150.828125 31.398438 C 149.578125 41.640625 139.207031 43.933594 128.839844 43.648438 C 114.085938 43.238281 100.074219 38.273438 85.96875 34.519531 C 63.792969 28.625 48.578125 30.378906 39.550781 38.941406 " fill-opacity="1" fill-rule="evenodd"/><g clip-path="url(#521d1121c4)"><path fill="#1e90ff" d="M 33.609375 33.683594 C 72.113281 25.378906 110.613281 21.042969 149.117188 24.816406 C 141.433594 30.484375 134.3125 36.511719 127.238281 42.5625 C 127.78125 42.589844 128.324219 42.609375 128.863281 42.628906 C 130.625 42.675781 132.59375 42.65625 134.59375 42.476562 C 142.910156 35.316406 151.601562 28.3125 160.601562 21.445312 C 115.371094 14.589844 73.875 20.898438 33.609375 33.683594 " fill-opacity="1" fill-rule="evenodd"/></g><path fill="#1e90ff" d="M 124.519531 17.621094 C 98.957031 3.066406 77.738281 10.921875 48.777344 22.945312 C 65.050781 18.160156 94.828125 8.667969 112.660156 17.84375 C 116.613281 17.675781 120.566406 17.601562 124.519531 17.621094 " fill-opacity="1" fill-rule="evenodd"/><path fill="#1e90ff" d="M 116.75 11.394531 C 96.660156 0.667969 86.292969 4.863281 64.714844 14.085938 C 90.574219 4.742188 100.605469 5.992188 116.75 11.394531 " fill-opacity="1" fill-rule="evenodd"/></svg>