<svg xmlns="http://www.w3.org/2000/svg" xmlns:xlink="http://www.w3.org/1999/xlink" width="321" zoomAndPan="magnify" viewBox="0 0 240.75 101.999999" height="136" preserveAspectRatio="xMidYMid meet" version="1.0"><defs><g/><clipPath id="9c56d562de"><path d="M 50 30 L 163 30 L 163 49.800781 L 50 49.800781 Z M 50 30 " clip-rule="nonzero"/></clipPath><clipPath id="5d96ee51b1"><path d="M 44.953125 18 L 172.320312 18 L 172.320312 43 L 44.953125 43 Z M 44.953125 18 " clip-rule="nonzero"/></clipPath></defs><g fill="#000000" fill-opacity="1"><g transform="translate(54.872217, 78.470397)"><g><path d="M 9.265625 -20.296875 C 11.878906 -20.296875 14.234375 -19.609375 16.328125 -18.234375 L 14.921875 -15.234375 C 12.859375 -16.484375 10.890625 -17.109375 9.015625 -17.109375 C 7.992188 -17.109375 7.191406 -16.925781 6.609375 -16.5625 C 6.023438 -16.195312 5.734375 -15.675781 5.734375 -15 C 5.734375 -14.332031 6 -13.757812 6.53125 -13.28125 C 7.070312 -12.8125 7.742188 -12.46875 8.546875 -12.25 C 9.359375 -12.03125 10.234375 -11.75 11.171875 -11.40625 C 12.109375 -11.070312 12.976562 -10.71875 13.78125 -10.34375 C 14.59375 -9.976562 15.265625 -9.394531 15.796875 -8.59375 C 16.328125 -7.800781 16.59375 -6.835938 16.59375 -5.703125 C 16.59375 -3.929688 15.882812 -2.519531 14.46875 -1.46875 C 13.0625 -0.414062 11.234375 0.109375 8.984375 0.109375 C 7.453125 0.109375 5.960938 -0.175781 4.515625 -0.75 C 3.078125 -1.320312 1.820312 -2.097656 0.75 -3.078125 L 2.21875 -6.015625 C 3.238281 -5.078125 4.359375 -4.351562 5.578125 -3.84375 C 6.796875 -3.332031 7.953125 -3.078125 9.046875 -3.078125 C 10.234375 -3.078125 11.15625 -3.289062 11.8125 -3.71875 C 12.476562 -4.15625 12.8125 -4.757812 12.8125 -5.53125 C 12.8125 -6.21875 12.539062 -6.796875 12 -7.265625 C 11.46875 -7.742188 10.796875 -8.09375 9.984375 -8.3125 C 9.179688 -8.53125 8.3125 -8.796875 7.375 -9.109375 C 6.4375 -9.429688 5.5625 -9.769531 4.75 -10.125 C 3.945312 -10.476562 3.273438 -11.046875 2.734375 -11.828125 C 2.191406 -12.617188 1.921875 -13.570312 1.921875 -14.6875 C 1.921875 -16.394531 2.59375 -17.753906 3.9375 -18.765625 C 5.289062 -19.785156 7.066406 -20.296875 9.265625 -20.296875 Z M 9.265625 -20.296875 "/></g></g></g><g fill="#000000" fill-opacity="1"><g transform="translate(74.218055, 78.470397)"><g><path d="M 15.671875 -4.546875 L 5.5 -4.546875 L 3.578125 0 L 0.03125 0 L 8.921875 -20.15625 L 12.40625 -20.15625 L 21.21875 0 L 17.59375 0 Z M 14.375 -7.578125 L 10.5625 -16.53125 L 6.765625 -7.578125 Z M 14.375 -7.578125 "/></g></g></g><g fill="#000000" fill-opacity="1"><g transform="translate(96.903278, 78.470397)"><g><path d="M 6.046875 0 L 2.65625 0 L 2.65625 -20.15625 L 6.046875 -20.15625 Z M 6.046875 0 "/></g></g></g><g fill="#000000" fill-opacity="1"><g transform="translate(107.037016, 78.470397)"><g><path d="M 6.046875 -3.078125 L 14.765625 -3.078125 L 14.765625 0 L 2.65625 0 L 2.65625 -20.15625 L 6.046875 -20.15625 Z M 6.046875 -3.078125 "/></g></g></g><g fill="#000000" fill-opacity="1"><g transform="translate(123.849521, 78.470397)"><g><path d="M 11.578125 -20.25 C 12.992188 -20.25 14.378906 -19.972656 15.734375 -19.421875 C 17.085938 -18.878906 18.253906 -18.117188 19.234375 -17.140625 L 17.25 -14.65625 C 16.519531 -15.445312 15.65625 -16.070312 14.65625 -16.53125 C 13.65625 -16.988281 12.648438 -17.21875 11.640625 -17.21875 C 9.617188 -17.21875 7.910156 -16.53125 6.515625 -15.15625 C 5.128906 -13.789062 4.4375 -12.117188 4.4375 -10.140625 C 4.4375 -8.140625 5.128906 -6.453125 6.515625 -5.078125 C 7.910156 -3.710938 9.617188 -3.03125 11.640625 -3.03125 C 13.722656 -3.03125 15.59375 -3.820312 17.25 -5.40625 L 19.265625 -3.171875 C 18.222656 -2.148438 17.007812 -1.34375 15.625 -0.75 C 14.25 -0.15625 12.863281 0.140625 11.46875 0.140625 C 8.507812 0.140625 6.019531 -0.84375 4 -2.8125 C 1.988281 -4.78125 0.984375 -7.210938 0.984375 -10.109375 C 0.984375 -12.972656 2.003906 -15.378906 4.046875 -17.328125 C 6.085938 -19.273438 8.597656 -20.25 11.578125 -20.25 Z M 11.578125 -20.25 "/></g></g></g><g fill="#000000" fill-opacity="1"><g transform="translate(145.354435, 78.470397)"><g><path d="M 20.125 0 L 16.734375 0 L 16.734375 -8.34375 L 6.046875 -8.34375 L 6.046875 0 L 2.65625 0 L 2.65625 -20.15625 L 6.046875 -20.15625 L 6.046875 -11.40625 L 16.734375 -11.40625 L 16.734375 -20.15625 L 20.125 -20.15625 Z M 20.125 0 "/></g></g></g><g fill="#000000" fill-opacity="1"><g transform="translate(169.565403, 78.470397)"><g><path d="M 16.421875 -17.109375 L 10.015625 -17.109375 L 10.015625 0 L 6.625 0 L 6.625 -17.109375 L 0.265625 -17.109375 L 0.265625 -20.15625 L 16.421875 -20.15625 Z M 16.421875 -17.109375 "/></g></g></g><g fill="#000000" fill-opacity="1"><g transform="translate(76.685112, 97.070689)"><g><path d="M 4.015625 -2.46875 L 4.015625 0 L 2.78125 0 L 2.78125 -2.421875 L 0.015625 -7.421875 L 1.265625 -7.421875 L 3.390625 -3.8125 L 5.46875 -7.421875 L 6.75 -7.421875 Z M 4.015625 -2.46875 "/></g></g></g><g fill="#000000" fill-opacity="1"><g transform="translate(85.565215, 97.070689)"><g><path d="M 5.765625 -1.671875 L 2.03125 -1.671875 L 1.3125 0 L 0.015625 0 L 3.28125 -7.421875 L 4.578125 -7.421875 L 7.8125 0 L 6.484375 0 Z M 5.296875 -2.796875 L 3.890625 -6.09375 L 2.5 -2.796875 Z M 5.296875 -2.796875 "/></g></g></g><g fill="#000000" fill-opacity="1"><g transform="translate(95.516552, 97.070689)"><g><path d="M 4.265625 -7.453125 C 4.785156 -7.453125 5.296875 -7.351562 5.796875 -7.15625 C 6.296875 -6.957031 6.726562 -6.675781 7.09375 -6.3125 L 6.359375 -5.40625 C 6.085938 -5.6875 5.765625 -5.910156 5.390625 -6.078125 C 5.023438 -6.253906 4.65625 -6.34375 4.28125 -6.34375 C 3.539062 -6.34375 2.914062 -6.085938 2.40625 -5.578125 C 1.894531 -5.078125 1.640625 -4.460938 1.640625 -3.734375 C 1.640625 -2.992188 1.894531 -2.367188 2.40625 -1.859375 C 2.914062 -1.359375 3.539062 -1.109375 4.28125 -1.109375 C 5.050781 -1.109375 5.742188 -1.40625 6.359375 -2 L 7.09375 -1.171875 C 6.71875 -0.796875 6.273438 -0.5 5.765625 -0.28125 C 5.253906 -0.0625 4.738281 0.046875 4.21875 0.046875 C 3.132812 0.046875 2.21875 -0.3125 1.46875 -1.03125 C 0.726562 -1.757812 0.359375 -2.65625 0.359375 -3.71875 C 0.359375 -4.78125 0.734375 -5.664062 1.484375 -6.375 C 2.242188 -7.09375 3.171875 -7.453125 4.265625 -7.453125 Z M 4.265625 -7.453125 "/></g></g></g><g fill="#000000" fill-opacity="1"><g transform="translate(105.03303, 97.070689)"><g><path d="M 7.421875 0 L 6.15625 0 L 6.15625 -3.078125 L 2.234375 -3.078125 L 2.234375 0 L 0.96875 0 L 0.96875 -7.421875 L 2.234375 -7.421875 L 2.234375 -4.203125 L 6.15625 -4.203125 L 6.15625 -7.421875 L 7.421875 -7.421875 Z M 7.421875 0 "/></g></g></g><g fill="#000000" fill-opacity="1"><g transform="translate(115.546488, 97.070689)"><g><path d="M 6.046875 -6.296875 L 3.6875 -6.296875 L 3.6875 0 L 2.4375 0 L 2.4375 -6.296875 L 0.09375 -6.296875 L 0.09375 -7.421875 L 6.046875 -7.421875 Z M 6.046875 -6.296875 "/></g></g></g><g fill="#000000" fill-opacity="1"><g transform="translate(123.811423, 97.070689)"><g/></g></g><g fill="#000000" fill-opacity="1"><g transform="translate(128.671766, 97.070689)"><g><path d="M 5.6875 0 L 4.328125 -2.25 C 4.253906 -2.238281 4.140625 -2.234375 3.984375 -2.234375 L 2.234375 -2.234375 L 2.234375 0 L 0.96875 0 L 0.96875 -7.421875 L 3.984375 -7.421875 C 4.929688 -7.421875 5.664062 -7.195312 6.1875 -6.75 C 6.71875 -6.3125 6.984375 -5.691406 6.984375 -4.890625 C 6.984375 -4.296875 6.847656 -3.789062 6.578125 -3.375 C 6.316406 -2.96875 5.9375 -2.671875 5.4375 -2.484375 L 7.109375 0 Z M 2.234375 -3.359375 L 3.984375 -3.359375 C 5.191406 -3.359375 5.796875 -3.859375 5.796875 -4.859375 C 5.796875 -5.816406 5.191406 -6.296875 3.984375 -6.296875 L 2.234375 -6.296875 Z M 2.234375 -3.359375 "/></g></g></g><g fill="#000000" fill-opacity="1"><g transform="translate(138.463999, 97.070689)"><g><path d="M 6.28125 -6.296875 L 2.234375 -6.296875 L 2.234375 -4.296875 L 5.859375 -4.296875 L 5.859375 -3.171875 L 2.234375 -3.171875 L 2.234375 -1.125 L 6.40625 -1.125 L 6.40625 0 L 0.96875 0 L 0.96875 -7.421875 L 6.28125 -7.421875 Z M 6.28125 -6.296875 "/></g></g></g><g fill="#000000" fill-opacity="1"><g transform="translate(147.545618, 97.070689)"><g><path d="M 7.421875 0 L 6.1875 0 L 2.234375 -5.328125 L 2.234375 0 L 0.96875 0 L 0.96875 -7.421875 L 2.203125 -7.421875 L 6.1875 -2.09375 L 6.1875 -7.421875 L 7.421875 -7.421875 Z M 7.421875 0 "/></g></g></g><g fill="#000000" fill-opacity="1"><g transform="translate(158.069685, 97.070689)"><g><path d="M 6.046875 -6.296875 L 3.6875 -6.296875 L 3.6875 0 L 2.4375 0 L 2.4375 -6.296875 L 0.09375 -6.296875 L 0.09375 -7.421875 L 6.046875 -7.421875 Z M 6.046875 -6.296875 "/></g></g></g><g fill="#000000" fill-opacity="1"><g transform="translate(166.334619, 97.070689)"><g><path d="M 5.765625 -1.671875 L 2.03125 -1.671875 L 1.3125 0 L 0.015625 0 L 3.28125 -7.421875 L 4.578125 -7.421875 L 7.8125 0 L 6.484375 0 Z M 5.296875 -2.796875 L 3.890625 -6.09375 L 2.5 -2.796875 Z M 5.296875 -2.796875 "/></g></g></g><g fill="#000000" fill-opacity="1"><g transform="translate(176.285961, 97.070689)"><g><path d="M 2.234375 -1.140625 L 5.4375 -1.140625 L 5.4375 0 L 0.96875 0 L 0.96875 -7.421875 L 2.234375 -7.421875 Z M 2.234375 -1.140625 "/></g></g></g><path fill="#1e90ff" d="M 51.167969 41.507812 C 66.796875 35.585938 83.847656 37.902344 102.3125 48.433594 C 84.328125 41.566406 67.257812 39.144531 51.167969 41.507812 " fill-opacity="1" fill-rule="evenodd"/><g clip-path="url(#9c56d562de)"><path fill="#1e90ff" d="M 50.902344 38.714844 C 60.332031 33.871094 76.246094 35.460938 96.101562 40.953125 C 111.054688 45.09375 124.179688 49.738281 139.9375 49.554688 C 152.714844 49.402344 165.878906 45.761719 162.3125 31.164062 C 161.0625 41.414062 150.679688 43.714844 140.296875 43.425781 C 125.527344 43.015625 111.5 38.042969 97.375 34.285156 C 75.171875 28.382812 59.941406 30.144531 50.902344 38.714844 " fill-opacity="1" fill-rule="evenodd"/></g><g clip-path="url(#5d96ee51b1)"><path fill="#1e90ff" d="M 44.953125 33.449219 C 83.503906 25.132812 122.050781 20.792969 160.601562 24.570312 C 152.90625 30.246094 145.777344 36.28125 138.695312 42.339844 C 139.238281 42.367188 139.78125 42.386719 140.324219 42.40625 C 142.085938 42.453125 144.058594 42.433594 146.0625 42.253906 C 154.386719 35.082031 163.085938 28.074219 172.097656 21.195312 C 126.816406 14.332031 85.265625 20.648438 44.953125 33.449219 " fill-opacity="1" fill-rule="evenodd"/></g><path fill="#1e90ff" d="M 135.972656 17.367188 C 110.378906 2.792969 89.132812 10.65625 60.136719 22.695312 C 76.429688 17.910156 106.246094 8.402344 124.097656 17.59375 C 128.058594 17.421875 132.015625 17.347656 135.972656 17.367188 " fill-opacity="1" fill-rule="evenodd"/><path fill="#1e90ff" d="M 128.195312 11.132812 C 108.078125 0.394531 97.699219 4.59375 76.09375 13.828125 C 101.984375 4.472656 112.027344 5.722656 128.195312 11.132812 " fill-opacity="1" fill-rule="evenodd"/></svg>