<svg xmlns="http://www.w3.org/2000/svg" xmlns:xlink="http://www.w3.org/1999/xlink" width="446" zoomAndPan="magnify" viewBox="0 0 334.5 110.249996" height="147" preserveAspectRatio="xMidYMid meet" version="1.0"><defs><g/><clipPath id="6915a8de9e"><path d="M 81.582031 23 L 246.957031 23 L 246.957031 55 L 81.582031 55 Z M 81.582031 23 " clip-rule="nonzero"/></clipPath></defs><g fill="#ffffff" fill-opacity="1"><g transform="translate(213.172532, 30.694546)"><g><path d="M 5.75 -1.671875 L 2.015625 -1.671875 L 1.3125 0 L 0.015625 0 L 3.28125 -7.390625 L 4.546875 -7.390625 L 7.78125 0 L 6.453125 0 Z M 5.265625 -2.78125 L 3.875 -6.0625 L 2.484375 -2.78125 Z M 5.265625 -2.78125 "/></g></g></g><path fill="#1e90ff" d="M 89.652344 53.511719 C 109.941406 45.824219 132.078125 48.828125 156.058594 62.503906 C 132.707031 53.585938 110.539062 50.441406 89.652344 53.511719 " fill-opacity="1" fill-rule="evenodd"/><path fill="#1e90ff" d="M 89.304688 49.882812 C 101.546875 43.597656 122.210938 45.660156 147.992188 52.792969 C 167.40625 58.167969 184.449219 64.195312 204.910156 63.957031 C 221.5 63.765625 238.585938 59.035156 233.960938 40.082031 C 232.335938 53.390625 218.851562 56.375 205.375 56 C 186.199219 55.46875 167.984375 49.011719 149.644531 44.136719 C 120.820312 36.472656 101.039062 38.753906 89.304688 49.882812 " fill-opacity="1" fill-rule="evenodd"/><g clip-path="url(#6915a8de9e)"><path fill="#1e90ff" d="M 81.582031 43.050781 C 131.636719 32.25 181.683594 26.613281 231.738281 31.519531 C 221.75 38.886719 212.492188 46.722656 203.296875 54.59375 C 204 54.628906 204.703125 54.65625 205.410156 54.675781 C 207.699219 54.738281 210.257812 54.714844 212.859375 54.480469 C 223.667969 45.171875 234.964844 36.070312 246.664062 27.140625 C 187.871094 18.226562 133.921875 26.425781 81.582031 43.050781 " fill-opacity="1" fill-rule="evenodd"/></g><path fill="#1e90ff" d="M 199.761719 22.167969 C 166.527344 3.246094 138.945312 13.457031 101.296875 29.089844 C 122.453125 22.871094 161.160156 10.527344 184.34375 22.460938 C 189.484375 22.238281 194.621094 22.140625 199.761719 22.167969 " fill-opacity="1" fill-rule="evenodd"/><path fill="#1e90ff" d="M 189.660156 14.074219 C 163.542969 0.128906 150.066406 5.582031 122.015625 17.570312 C 155.632812 5.425781 168.671875 7.046875 189.660156 14.074219 " fill-opacity="1" fill-rule="evenodd"/><g fill="#ffffff" fill-opacity="1"><g transform="translate(109.286484, 97.229974)"><g><path d="M 9.21875 -20.1875 C 11.8125 -20.1875 14.148438 -19.5 16.234375 -18.125 L 14.828125 -15.140625 C 12.785156 -16.378906 10.828125 -17 8.953125 -17 C 7.941406 -17 7.144531 -16.816406 6.5625 -16.453125 C 5.988281 -16.097656 5.703125 -15.582031 5.703125 -14.90625 C 5.703125 -14.238281 5.96875 -13.671875 6.5 -13.203125 C 7.03125 -12.742188 7.695312 -12.398438 8.5 -12.171875 C 9.300781 -11.953125 10.171875 -11.675781 11.109375 -11.34375 C 12.046875 -11.007812 12.910156 -10.65625 13.703125 -10.28125 C 14.503906 -9.914062 15.164062 -9.335938 15.6875 -8.546875 C 16.21875 -7.753906 16.484375 -6.796875 16.484375 -5.671875 C 16.484375 -3.910156 15.78125 -2.503906 14.375 -1.453125 C 12.976562 -0.410156 11.164062 0.109375 8.9375 0.109375 C 7.40625 0.109375 5.921875 -0.175781 4.484375 -0.75 C 3.054688 -1.320312 1.8125 -2.09375 0.75 -3.0625 L 2.203125 -5.984375 C 3.210938 -5.046875 4.320312 -4.320312 5.53125 -3.8125 C 6.75 -3.3125 7.898438 -3.0625 8.984375 -3.0625 C 10.171875 -3.0625 11.09375 -3.273438 11.75 -3.703125 C 12.40625 -4.128906 12.734375 -4.726562 12.734375 -5.5 C 12.734375 -6.1875 12.46875 -6.757812 11.9375 -7.21875 C 11.40625 -7.6875 10.738281 -8.03125 9.9375 -8.25 C 9.132812 -8.476562 8.265625 -8.75 7.328125 -9.0625 C 6.390625 -9.375 5.519531 -9.707031 4.71875 -10.0625 C 3.914062 -10.414062 3.25 -10.984375 2.71875 -11.765625 C 2.1875 -12.546875 1.921875 -13.488281 1.921875 -14.59375 C 1.921875 -16.289062 2.585938 -17.644531 3.921875 -18.65625 C 5.253906 -19.675781 7.019531 -20.1875 9.21875 -20.1875 Z M 9.21875 -20.1875 "/></g></g></g><g fill="#ffffff" fill-opacity="1"><g transform="translate(128.52156, 97.229974)"><g><path d="M 15.578125 -4.515625 L 5.46875 -4.515625 L 3.546875 0 L 0.03125 0 L 8.875 -20.03125 L 12.34375 -20.03125 L 21.09375 0 L 17.484375 0 Z M 14.28125 -7.53125 L 10.5 -16.4375 L 6.734375 -7.53125 Z M 14.28125 -7.53125 "/></g></g></g><g fill="#ffffff" fill-opacity="1"><g transform="translate(151.076901, 97.229974)"><g><path d="M 6.015625 0 L 2.640625 0 L 2.640625 -20.03125 L 6.015625 -20.03125 Z M 6.015625 0 "/></g></g></g><g fill="#ffffff" fill-opacity="1"><g transform="translate(161.152619, 97.229974)"><g><path d="M 6.015625 -3.0625 L 14.6875 -3.0625 L 14.6875 0 L 2.640625 0 L 2.640625 -20.03125 L 6.015625 -20.03125 Z M 6.015625 -3.0625 "/></g></g></g><g fill="#ffffff" fill-opacity="1"><g transform="translate(177.868867, 97.229974)"><g><path d="M 4.03125 -17.21875 C 6.070312 -19.15625 8.59375 -20.125 11.59375 -20.125 C 14.59375 -20.125 17.113281 -19.15625 19.15625 -17.21875 C 21.195312 -15.28125 22.21875 -12.878906 22.21875 -10.015625 C 22.21875 -7.148438 21.195312 -4.738281 19.15625 -2.78125 C 17.113281 -0.832031 14.59375 0.140625 11.59375 0.140625 C 8.59375 0.140625 6.070312 -0.832031 4.03125 -2.78125 C 1.988281 -4.738281 0.96875 -7.148438 0.96875 -10.015625 C 0.96875 -12.878906 1.988281 -15.28125 4.03125 -17.21875 Z M 11.625 -17.09375 C 9.632812 -17.09375 7.929688 -16.410156 6.515625 -15.046875 C 5.109375 -13.679688 4.40625 -12.003906 4.40625 -10.015625 C 4.40625 -8.035156 5.113281 -6.351562 6.53125 -4.96875 C 7.957031 -3.582031 9.648438 -2.890625 11.609375 -2.890625 C 13.578125 -2.890625 15.257812 -3.582031 16.65625 -4.96875 C 18.050781 -6.351562 18.75 -8.035156 18.75 -10.015625 C 18.75 -12.003906 18.050781 -13.679688 16.65625 -15.046875 C 15.257812 -16.410156 13.582031 -17.09375 11.625 -17.09375 Z M 11.625 -17.09375 "/></g></g></g><g fill="#ffffff" fill-opacity="1"><g transform="translate(202.485061, 97.229974)"><g><path d="M 20.015625 0 L 16.6875 0 L 6.015625 -14.375 L 6.015625 0 L 2.640625 0 L 2.640625 -20.03125 L 5.953125 -20.03125 L 16.6875 -5.640625 L 16.6875 -20.03125 L 20.015625 -20.03125 Z M 20.015625 0 "/></g></g></g></svg>