<svg xmlns="http://www.w3.org/2000/svg" xmlns:xlink="http://www.w3.org/1999/xlink" width="700" zoomAndPan="magnify" viewBox="0 0 329.25 128.249994" height="171" preserveAspectRatio="xMidYMid meet" version="1.0"><defs><g/><clipPath id="ad3ced4947"><path d="M 0.832031 46 L 327.921875 46 L 327.921875 109 L 0.832031 109 Z M 0.832031 46 " clip-rule="nonzero"/></clipPath></defs><g fill="#ffffff" fill-opacity="1"><g transform="translate(132.547523, 30.723679)"><g><path d="M 5.75 -1.671875 L 2.015625 -1.671875 L 1.3125 0 L 0.015625 0 L 3.28125 -7.390625 L 4.546875 -7.390625 L 7.78125 0 L 6.453125 0 Z M 5.265625 -2.78125 L 3.875 -6.0625 L 2.484375 -2.78125 Z M 5.265625 -2.78125 "/></g></g></g><path fill="#1e90ff" d="M 16.820312 105.957031 C 57.019531 90.722656 100.882812 96.675781 148.386719 123.773438 C 102.125 106.101562 58.207031 99.871094 16.820312 105.957031 " fill-opacity="1" fill-rule="evenodd"/><path fill="#1e90ff" d="M 16.132812 98.765625 C 40.390625 86.308594 81.328125 90.394531 132.414062 104.53125 C 170.871094 115.175781 204.640625 127.125 245.179688 126.652344 C 278.050781 126.265625 311.90625 116.898438 302.738281 79.339844 C 299.523438 105.714844 272.804688 111.628906 246.105469 110.886719 C 208.109375 109.832031 172.019531 97.039062 135.683594 87.375 C 78.574219 72.195312 39.386719 76.714844 16.132812 98.765625 " fill-opacity="1" fill-rule="evenodd"/><g clip-path="url(#ad3ced4947)"><path fill="#1e90ff" d="M 0.832031 85.222656 C 100.003906 63.832031 199.167969 52.660156 298.335938 62.382812 C 278.542969 76.976562 260.203125 92.503906 241.980469 108.09375 C 243.378906 108.167969 244.773438 108.21875 246.171875 108.261719 C 250.707031 108.382812 255.777344 108.332031 260.933594 107.875 C 282.347656 89.425781 304.730469 71.394531 327.910156 53.703125 C 211.417969 36.046875 104.53125 52.292969 0.832031 85.222656 " fill-opacity="1" fill-rule="evenodd"/></g><path fill="#1e90ff" d="M 234.980469 43.847656 C 169.132812 6.363281 114.488281 26.59375 39.894531 57.5625 C 81.808594 45.246094 158.503906 20.789062 204.429688 44.429688 C 214.617188 43.996094 224.800781 43.796875 234.980469 43.847656 " fill-opacity="1" fill-rule="evenodd"/><path fill="#1e90ff" d="M 214.96875 27.816406 C 163.222656 0.191406 136.519531 10.988281 80.945312 34.746094 C 147.542969 10.683594 173.382812 13.898438 214.96875 27.816406 " fill-opacity="1" fill-rule="evenodd"/></svg>